<?xml version="1.0" encoding="utf-8"?>
<svg width="510px" height="581.6396px" viewBox="0 0 510 581.6396" version="1.1" xmlns:xlink="http://www.w3.org/1999/xlink" xmlns="http://www.w3.org/2000/svg">
  <g id="Group">
    <path d="M287.679 13.6257L496.356 224.265Q496.951 224.866 497.523 225.488Q498.095 226.109 498.645 226.752Q499.194 227.394 499.719 228.057Q500.244 228.719 500.744 229.4Q501.245 230.081 501.72 230.78Q502.195 231.479 502.644 232.195Q503.093 232.911 503.516 233.643Q503.939 234.375 504.334 235.122Q504.729 235.869 505.097 236.63Q505.465 237.391 505.804 238.165Q506.143 238.939 506.454 239.725Q506.765 240.511 507.047 241.307Q507.328 242.104 507.581 242.911Q507.833 243.718 508.055 244.533Q508.278 245.348 508.47 246.171Q508.662 246.994 508.824 247.824Q508.986 248.653 509.118 249.488Q509.249 250.323 509.35 251.162Q509.451 252.001 509.52 252.844Q509.59 253.686 509.629 254.53Q509.667 255.375 509.675 256.22Q509.683 257.065 509.66 257.91Q509.636 258.755 509.582 259.598Q509.528 260.441 509.442 261.282Q509.357 262.123 509.241 262.96Q509.125 263.797 508.978 264.63Q508.831 265.462 508.654 266.288Q508.476 267.115 508.269 267.934Q508.061 268.753 507.824 269.565Q507.586 270.376 507.319 271.177Q507.052 271.979 506.756 272.771Q506.46 273.562 506.134 274.342Q505.809 275.123 505.455 275.89Q505.102 276.658 504.72 277.412Q504.338 278.166 503.929 278.905Q503.52 279.645 503.084 280.369Q502.648 281.093 502.186 281.801Q501.724 282.508 501.236 283.198Q500.748 283.888 500.235 284.56Q499.722 285.232 499.184 285.884Q498.647 286.536 498.086 287.169Q497.525 287.801 496.941 288.412Q496.358 289.023 495.752 289.612Q495.146 290.202 494.519 290.768Q493.892 291.335 493.244 291.878Q492.597 292.422 491.93 292.941Q491.263 293.46 490.577 293.954Q489.892 294.448 489.189 294.917Q488.485 295.386 487.765 295.828Q487.045 296.271 486.309 296.687Q485.574 297.103 484.823 297.491Q484.072 297.88 483.308 298.24Q482.544 298.601 481.767 298.933Q480.99 299.266 480.201 299.569Q479.412 299.873 478.613 300.147Q477.813 300.422 477.004 300.667Q476.195 300.911 475.378 301.126Q474.561 301.341 473.736 301.526Q472.911 301.711 472.08 301.865Q471.249 302.02 470.413 302.144Q469.577 302.267 468.737 302.36Q467.897 302.453 467.054 302.515Q466.211 302.577 465.367 302.608Q464.522 302.64 463.677 302.64L456 302.64L456 455.64C456 486.572 430.932 511.64 400 511.64L320 511.64C311.162 511.64 304 504.477 304 495.64L304 375.64C304 361.831 292.809 350.64 279 350.64L231 350.64C217.191 350.64 206 361.831 206 375.64L206 495.64C206 504.477 198.838 511.64 190 511.64L110 511.64C79.0678 511.64 54 486.572 54 455.64L54 302.64L46.3229 302.64Q45.4777 302.64 44.6331 302.609Q43.7885 302.577 42.9457 302.515Q42.1028 302.453 41.2627 302.36Q40.4227 302.267 39.5866 302.144Q38.7506 302.02 37.9196 301.865Q37.0887 301.711 36.264 301.526Q35.4392 301.341 34.6219 301.126Q33.8045 300.911 32.9956 300.667Q32.1867 300.422 31.3873 300.147Q30.5879 299.873 29.7991 299.569Q29.0104 299.266 28.2333 298.933Q27.4562 298.601 26.6919 298.24Q25.9275 297.88 25.177 297.491Q24.4264 297.103 23.6906 296.687Q22.9548 296.271 22.2348 295.828Q21.5147 295.386 20.8115 294.917Q20.1082 294.448 19.4226 293.954Q18.737 293.46 18.07 292.941Q17.403 292.422 16.7556 291.878Q16.1081 291.335 15.4811 290.768Q14.854 290.202 14.2482 289.612Q13.6424 289.023 13.0586 288.412Q12.4749 287.801 11.9139 287.169Q11.353 286.536 10.8157 285.884Q10.2784 285.232 9.7654 284.56Q9.25241 283.888 8.76444 283.198Q8.27647 282.508 7.81418 281.801Q7.35189 281.093 6.9159 280.369Q6.47991 279.645 6.07082 278.905Q5.66172 278.166 5.28007 277.412Q4.89841 276.658 4.54472 275.89Q4.19102 275.123 3.86576 274.342Q3.5405 273.562 3.24412 272.771Q2.94774 271.979 2.68063 271.177Q2.41352 270.376 2.17604 269.565Q1.93857 268.753 1.73105 267.934Q1.52354 267.115 1.34626 266.288Q1.16897 265.462 1.02217 264.63Q0.875364 263.797 0.759232 262.96Q0.643101 262.123 0.557799 261.282Q0.472498 260.441 0.418143 259.598Q0.363787 258.755 0.340451 257.91Q0.317115 257.065 0.324829 256.22Q0.332543 255.375 0.371297 254.53Q0.410051 253.686 0.479793 252.844Q0.549535 252.001 0.650171 251.162Q0.750807 250.323 0.8822 249.488Q1.01359 248.653 1.17557 247.824Q1.33754 246.994 1.52988 246.171Q1.72221 245.348 1.94465 244.533Q2.16709 243.718 2.41933 242.911Q2.67157 242.104 2.95327 241.307Q3.23497 240.511 3.54575 239.725Q3.85654 238.939 4.19598 238.165Q4.53543 237.391 4.90307 236.63Q5.27072 235.869 5.66608 235.122Q6.06143 234.375 6.48396 233.643Q6.90649 232.911 7.35562 232.195Q7.80475 231.479 8.27988 230.78Q8.75501 230.081 9.25549 229.4Q9.75598 228.719 10.2811 228.057Q10.8063 227.394 11.3554 226.752Q11.9046 226.109 12.4769 225.488Q13.0493 224.866 13.6441 224.265L222.321 13.6257Q223.121 12.8187 223.959 12.0521Q224.797 11.2856 225.673 10.5613Q226.548 9.83708 227.458 9.15692Q228.367 8.47676 229.31 7.84234Q230.252 7.20792 231.224 6.62078Q232.197 6.03364 233.197 5.49522Q234.197 4.9568 235.223 4.46841Q236.249 3.98002 237.297 3.54285Q238.346 3.10568 239.414 2.72079Q240.483 2.33591 241.57 2.00425Q242.656 1.67259 243.758 1.39496Q244.859 1.11733 245.973 0.894408Q247.087 0.671488 248.21 0.503821Q249.334 0.336154 250.464 0.224148Q251.595 0.112142 252.729 0.0560712Q253.864 0 255 0Q256.136 0 257.271 0.0560712Q258.405 0.112142 259.536 0.224148Q260.666 0.336154 261.79 0.503821Q262.913 0.671488 264.027 0.894408Q265.141 1.11733 266.242 1.39496Q267.344 1.67259 268.43 2.00425Q269.517 2.33591 270.586 2.72079Q271.654 3.10568 272.703 3.54285Q273.751 3.98002 274.777 4.46841Q275.803 4.9568 276.803 5.49522Q277.803 6.03364 278.776 6.62078Q279.748 7.20792 280.69 7.84234Q281.633 8.47676 282.542 9.15692Q283.452 9.83708 284.327 10.5613Q285.203 11.2856 286.041 12.0521Q286.879 12.8187 287.679 13.6257Z" id="Triangle-Union" fill="#96A7E5" fill-rule="evenodd" stroke="none" />
    <path d="M0 511.64L510 511.64L510 581.64L0 581.64L0 511.64Z" id="Rectangle" fill="#0097A7" fill-opacity="0" fill-rule="evenodd" stroke="none" />
  </g>
</svg>